<svg xmlns="http://www.w3.org/2000/svg"  width="462" height="491"><defs id="SvgjsDefs2521"></defs><g id="SvgjsG2524" featurekey="root" fill="#ffffff"></g><g id="SvgjsG2525" featurekey="container1" fill="#dc1836" transform="matrix(4.277674219506018,0,0,4.277674219506018,-0.23765586801580177,20)"><g xmlns="http://www.w3.org/2000/svg" fill=""><path d="M19.8 15.3h.5l-.4-.2zm.5.1zm.8-.7c0 .1 0 .1.1.1l.4-.3c-.2-.1-.3-.1-.5.2zm.4-.2zm-4.1 2.3zm-.2.6l.3-.2c.1-.1.1-.2.1-.2h-.2l-.2.4c-.1-.1-.1 0 0 0zm2.2-2.9h-.1l-.2.2h.3zm-2.1 2.4l.6-.5c.1-.1.1-.2.1-.3h-.3l-1.2 1.1-.2.4.7-.6zm-1.1.8z"></path><path d="M9.7 25v-.2a1.7 1.7 0 0 1 .7-1.1l.9-.6.5-.6.7-.7.4-.4.4-.3a1.9 1.9 0 0 0 .8-.9l.4-.5a5.9 5.9 0 0 0 1-1.3l.2-.3.3-.2-.2-.3.4-.5c.8-.6 1.4-1.4 2.2-2l.3-.3a1.4 1.4 0 0 1 .5-.6l.8-.4h.4a1.4 1.4 0 0 0 .7-.6V13a3.5 3.5 0 0 1 1.3-1.4l.8-.5.2-.2.4-.4 1-.5h.2l-1.1.4-1.4 1c-.6.5-1.4.6-1.8 1.4h.3c-.7.2-1.4.5-1.7 1.2s-.8.6-1.2.9a.4.4 0 0 0-.3.4c-.8-.1-1.1.5-1.5.9v.8a3.9 3.9 0 0 0-1.6 1.4c-1.6.1-1.6 2.1-3 2.5h-.1a.2.2 0 0 0 0 .2c-.3 0-.5.2-.4.5l-.2.5c-.7.4-.6 1.1-1 1.7-.8.5-1.1 1.5-1.7 2.2l.3.5.2-.2a11.6 11.6 0 0 1 .9-1.3zM53.9 3.3l.6.2h.2a2.2 2.2 0 0 0 1.4.2 4.1 4.1 0 0 1 1.9.1h1.2a1.4 1.4 0 0 1 1.2.3.1.1 0 0 1 0 .1H60a.1.1 0 0 0 0 .1h.7a1.8 1.8 0 0 1 1.3 0c.2 0 .1.1.2.2l.5.2h-.2c-.2-.4-.5-.4-.8-.4a9.7 9.7 0 0 0-4.3-.9h-.8A9.8 9.8 0 0 0 53 3h.2zm7.3 3.1zM50.3 4.7zm10.9 1.7h.2-.2zM19 14.7zm32.1-10zm17.6 2.2a.9.9 0 0 0 1 .2h.6a3.1 3.1 0 0 0-1.8-.7l-.7-.2.5.3zm-3.4-1.3c0 .1.1.2.2.3h.2l.5-.3a4.2 4.2 0 0 0-1.7-.6l.7.4zm7.4 2.7l.8.5c-.2-.3-.4-.5-.8-.5z"></path><path d="M99 76.1l.6-1.6.6-1.5c.2-.5.6-1.8.8-2.6a1.7 1.7 0 0 1 .3-.7h.1v-1.1c.5-.1.4-.6.5-.9l.8-4.7a12.7 12.7 0 0 0 0-6.2 1.9 1.9 0 0 0-.5-1.6v-4.3c-.3-.9.3-1.9-.4-2.7L101 45a.4.4 0 0 0 0-.2l-.2-.6a.5.5 0 0 1 0-.4h.1c.3 0 .3-.5.3-.9a3 3 0 0 0-.4-1.1l-.3-.4a1.1 1.1 0 0 1-.2-.7 6.7 6.7 0 0 0-.2-2v-.6c-.2-.7-.4-1.5-.6-2.2l-.2-.5a2.5 2.5 0 0 1-.4-1.1 2.5 2.5 0 0 0-.3-.8l-.6-1a.8.8 0 0 0-.6-.2h-.1V32h-.2v-.8H97V31a.4.4 0 0 0 0-.1v-.2c.1-.2.1-.3-.1-.5a1.8 1.8 0 0 1-.4-.6l-.2-.6a2.9 2.9 0 0 0-.7-1.2 2.2 2.2 0 0 1-.5-.7l-.7-1.6a4.3 4.3 0 0 0-.6-1l-.6-.8a2.4 2.4 0 0 1-.4-.8l-.2-.3a.6.6 0 0 1-.1-.5.5.5 0 0 0-.2-.4l-.4-.3v.2c.1.2 0 .3-.1.3h-.2l.3 1 .3.5.7.9h-.1l-.2-.2-.2-.2a1.3 1.3 0 0 0-1.2-1.1v-.7c-.3-1.2-1.6-1.3-2.2-2.1a1.5 1.5 0 0 0-1.1-.9l-.8-.9a11.3 11.3 0 0 0-3.1-3l-.8-.6-.4-.3c-.7-.7-1-1.8-2.2-1.8l-.8-.5-.9-.7a2.2 2.2 0 0 0-1.8-1.3 5.1 5.1 0 0 0-2.3-1.2l.2.2.5.4 1.3.7a8.5 8.5 0 0 1 2.1 1.6 6.8 6.8 0 0 0 1.5 1.1l.6.5c.1.1.2.2.1.3H81l-.9-.3a5.6 5.6 0 0 1-2-.8l-1.2-.6-1.3-.7h-.2c-.3-.1-.4-.4-.8-.5l-.8-.2-2.5-.5a2.6 2.6 0 0 1-.9-.7 1.7 1.7 0 0 1-.9-.3l-1-.4a18.1 18.1 0 0 1-2.8-.8l-.6-.2-1-.3h-.5l-.2-.3v-.1h-1.6l-.6-.5-.4.2-.4.2h-.2l-.9-.5c-.6.6-1.1-.2-1.6-.1l-1-.3a1.2 1.2 0 0 1-1.2 0h-1.2a.6.6 0 0 1-.5-.6l.3-.2h.6a.7.7 0 0 1 .1.3c0 .2.2.2.5.2h.2l-.4-.6a1.1 1.1 0 0 0-1-.2l-1 .3H53c.3.2.2.3.2.5h-1.6l-.4-.2-.8-.4h-.1l-.7-.2h-2.3l.4-.2.8-.2h.3l1.7-.3 1.1-.2.6-.2h-1.1a8.4 8.4 0 0 0-3.4 0h-1.3L43 3.6c-1.4.1-2.8 0-3.9 1.2-2.5-.4-4.7.7-6.9 1.8l-2.2.9a6.7 6.7 0 0 0-3.7 1.8h.3l.5-.3.8-.5 1.3-.6 1-.2a6 6 0 0 1 2-.9l.9-.3h.2c.1.2.5 0 .7 0h.2c.1 0 .1.1 0 .1l-.6.4 1-.3.8-.2-1.3.7-1.3.4a1 1 0 0 0-.6.5l-.3.5h.3l.4-.2a1.4 1.4 0 0 1 .9-.6l1.5-.5h.5a.1.1 0 0 1 .1.2c-.2.2-.6.3-.8.5h.2l-3.2.9-3.8 1.6a5.2 5.2 0 0 1-2.3 1.2 6.6 6.6 0 0 1-1.7 1.1l-.8.2a1.5 1.5 0 0 1-1.3.9l-.3.5a3.7 3.7 0 0 1-1.2 1.1h-.1v-.1l-.2.2-.2.2-1 .2h-.5l-.4.5c-.1.1-.1.2 0 .2h.1c-.6.6-1 1.4-1.8 1.7L15 19.9c-.6 1.2-1.8 1.6-2.6 2.6s-1.4 3.9-3.9 4.3l-.2-.3-.2.5a2.7 2.7 0 0 1-.4.8 16.9 16.9 0 0 0-1.2 2.1.8.8 0 0 0-.1.5 1.4 1.4 0 0 1-.2.8l-.5 1.1h.2c.3 0 .3.3.4.6l.8-1.1a2.2 2.2 0 0 1 .6-.7 2 2 0 0 0 .9-.9l.3-.3.4-.4.6-1.1h.2c.1.1.1.1.2 0l.2-.4h.5v.8l.5-.5a.5.5 0 0 0 0-.5.4.4 0 0 1 .1-.3 1.5 1.5 0 0 0 .3-.5 1.3 1.3 0 0 1 .8-.9l.3-.2.3-.3a2.4 2.4 0 0 0 .8-1l-.2-.3c0-.1.1-.3.2-.4h.5l.6-.8.6-.3h.2a48.8 48.8 0 0 0-5.5 7.2h-.1.1a48.4 48.4 0 0 0-5.3 11.2h-.5l-.5-.4c-.2-.2-.1-.7-.4-.9h.1c.3-.5-.1-1.2.3-1.7s.1-1.4-.9-1.2-1.5.5-1.3 1.5-1 1.8-1.1 2.9-.5.5-.3.9v3.9c.1.8-.5 1.8.8 2.1l1.3.9c.1.5-.5 1.6.9 1.3a49.2 49.2 0 0 0-.3 5c0 1.1.1 2.2.1 3.3v-.4c-.1-.4-.1-.8-.2-1.3l-.3.3v-.2h-.5c0 .5-.1.8-.4.9a.9.9 0 0 0-.1.5c0 .1.1.3.2.2s.4.2.7.4-.2.3-.4.2-.2.1-.2.3v.3l.5 1.5c0 .3-.1.6-.1.9a1.7 1.7 0 0 0 .2.8h-.3v-.3l-.7-.2v-.6a1.5 1.5 0 0 0 0-.5 14.6 14.6 0 0 1-.3-1.8 16.6 16.6 0 0 1-.2-3.5.9.9 0 0 1 .1-.5v.2a2.9 2.9 0 0 1 .1.5.8.8 0 0 0 .1.4c.1.2.2.4.4.4s.1-.1.1-.2a2.1 2.1 0 0 0-.1-.5 4.2 4.2 0 0 1-.3-1.3 1.5 1.5 0 0 0-.3-.7 1.6 1.6 0 0 1-.2-.9v-.8c0-.3.1-.6.1-.9a.5.5 0 0 0-.1-.4h-.1c-.8.4-.7.2-1 1.6V55c0 .7-.1 1.4 0 2.1a10.8 10.8 0 0 0 .2 2.3 1.8 1.8 0 0 1 0 .5 3.1 3.1 0 0 0 .1.9 5.9 5.9 0 0 1 .1 1.3 3.9 3.9 0 0 0 .2 1.7 1.2 1.2 0 0 1 0 .4 2.1 2.1 0 0 0 .1.8 4.9 4.9 0 0 1 .2.9 14 14 0 0 0 .5 2.2 5 5 0 0 1 .2 1 1.7 1.7 0 0 0 .3.7 2.9 2.9 0 0 1 .5 1.2 8.5 8.5 0 0 0 .3 1l.4 1.4a5.4 5.4 0 0 0 .6 1.5 8.5 8.5 0 0 1 .8 2.1l.2.5a2.1 2.1 0 0 1 .5 1 2.1 2.1 0 0 0 .4.8 1 1 0 0 1 .2.5c.1.3.2.4.4.3h.1v.9l.5 1 .5 1 1.1 1.2.4.4c.3.3.7.5.9 1l.4.3a.7.7 0 0 1 .3.5l.2.7a3.3 3.3 0 0 0 .6.9l.4.2h.3a.2.2 0 0 1 .1.3 2.5 2.5 0 0 0 0 .5.9.9 0 0 0 .4.5h.2c.4-.1.8.2 1.2.7h.1c0-.1.1-.1 0-.2v-.2c0-.1.1-.2.2-.1a.7.7 0 0 1 .3.6v.2a4.3 4.3 0 0 0 .4 1.2c.5.3.5.3.5.1s0-.2.2-.2h.4l.2.3.8.5c.7.8 1.8.7 2.6 1.2l1.7 1.7h.2a2.9 2.9 0 0 0 1.6 1.6 1.3 1.3 0 0 0 1 .6c0 .5.6.6 1.1.7a1.2 1.2 0 0 0 .8.4h.2a1.7 1.7 0 0 0 1.5.5l.9.8 2.4.9v.2c.5 1.1 1.7.7 2.5 1l1.1.4h.4c1.2.3 2.4.9 3.7.5a.7.7 0 0 0 0 .4c1.1.7 2.4 0 3.6.4a2.9 2.9 0 0 0 1.7.1h.1l.8.2h.3l.9.2h.3a.5.5 0 0 1 .5 0 7.9 7.9 0 0 0 1.5.4h.6a.7.7 0 0 1 .7 0h3.9a5 5 0 0 0 1.6-.1h1l.5-.2H60l.6-.2.5-.3h2.2v.6H62l-1.2.2c-.4.1-.7 0-1 .1a2.4 2.4 0 0 1-1 .2l-1.3.3h-.4a3.1 3.1 0 0 0-1.5.1h-1.8a1.1 1.1 0 0 1-.9 0h-4.5a1.3 1.3 0 0 0-1.1.3H47l-.3-.2v-.3h-1.2a4.1 4.1 0 0 0-1.3-.3h-2.5l-.7-.2-.5-.2-2.1-.4h-.5l-.5-.2-2.1-.7-1.4-.4h-2.2c-.1 0-.1.1-.1.2h.2c1.3.5 2.6.9 3.9 1.5h.3l.9.2 1.4.4h1.3l.6.2.7.3 1.7.3 1.1.2 1.1.2h.8l.8.2h3.1l1 .2h2.3l1-.2H56c.4 0 .6-.1.7-.3h1a1 1 0 0 0 .8-.3c-.1.1 0 .1.1.2h.4v-.2c0-.1 0-.1.2-.2s.6-.1.7.1h.4l.3-.2c.2 0 .2 0 .2.1h.7l.5-.2.8-.4c.1.3.4.4 1.3.2l1.3-.4h1.2c.9-.1 2 0 2.7-.7h.2l.4-.3 1.1-.3a6.1 6.1 0 0 0 2-.8l.4-.2h.1l.9-.6.4-.2.5-.2h.4c.4-.1.4-.1.5-.4s0-.1-.2-.1h-.1l.4-.5h.2c.3-.1.5-.2.7-.1h.2a1.3 1.3 0 0 0 .9-.9c.3-.4 1.1-.2 1.3-.8l4.3-3.1c1.1-.1 1.4-1.1 2.2-1.7s2.3-1.1 3-2.2l.9-.4h.1a1 1 0 0 0 1.2-.7v.4c.8-.4 1.8.3 2.6-.5s0-2.7 1-3.8l.7-.5a12.1 12.1 0 0 0 1.5-4.2l.2-.2c0-.3 0-.7.4-.9a.9.9 0 0 0 .2-1.2h-.2a.3.3 0 0 0 0-.3c.7 0 .8-.7 1.2-1V77a.5.5 0 0 1 0-.2 3.8 3.8 0 0 0 .1-.7zM5.9 32.2z"></path><path d="M26.4 9.3l-.3.2-.4.3.5-.2zm6.1-2h.1l.3-.2h-.4zm-2.6 1l-.1.1h.1v-.1zm-1.5 1.4zm1.3-.2zm-6.3 3.1zM9.2 26.2l-.4.4H9a.4.4 0 0 0 .2-.4zm3-3.5a2.1 2.1 0 0 0 .3-.6 1.5 1.5 0 0 0-.5.5c-.1.1-.1.2 0 .2zM11 24.2V24c-.2 0-.5.3-.8.3v.2c.3.3.4.2.8-.3zm3 66.2zM73.9 9.2h.1l-.5-.3zm-2.5-1.4c.5-.1.8.4 1.2.5h.1l-.3-.2-1-.5-1.1-.5.3.2zM52.8 3.1zm11.7 2h-.1l-1.2-.2h.5zm2 .7l1.3.4a3.3 3.3 0 0 0-1.3-.4zm-9 0a1 1 0 0 0 .2-.5h-.5l-.3.3.4.3zm9 1.6zM49.9 4.2zm2.9.7zM48.5 4zm13.8 2.1a.5.5 0 0 0 0 .1zm44.8 52.3h-.3V58h.3c.1 0 .2-.3.1-.4s-.1-.7-.3-.8a.3.3 0 0 1-.2-.3l.2-.4a.4.4 0 0 0 0-.2h-.2l-.2-.3c-.1.3-.2.6-.4.7a.5.5 0 0 0 0 .2c0 .1 0 .2-.1.2h-.1a1.1 1.1 0 0 1-.1.3 2.3 2.3 0 0 0-.4.9.4.4 0 0 0 .1.4h.1a1.7 1.7 0 0 0-.1.8v.4a1.8 1.8 0 0 1-.1.5h-.1l-.4.7v.6a1.5 1.5 0 0 1-.3 1.1h-.2l-.2-.2a.9.9 0 0 1-.1-.8 6.5 6.5 0 0 0 .1-1.7c0-.1-.1-.2-.1-.2a.5.5 0 0 0-.1.3v.6c0 .2-.1.6-.3.7s-.1.2-.1.3l-.2.6.3.5c-.2.2-.4.1-.5-.1v1h.3v.4a4.2 4.2 0 0 0-.3 1.4 3.3 3.3 0 0 0 0 .4 4 4 0 0 1-.2 1.3 2 2 0 0 0 0 .6l-.3.7a3.2 3.2 0 0 1-.3.7l-.3.6-.9 2.7c.3.9-.4 1.5-.8 2.1a2.7 2.7 0 0 1-.8 2.3v.4c0 .1.1.2.3.1l.4-.3.2-.4h.2c.1.1.2.1.4-.1h.2a.5.5 0 0 1 .1.6 2.9 2.9 0 0 0-.1.8c0 .1 0 .2.1.2h.2c.1.1.2 0 .3-.3l.2-.5h.3c.4-.1.4-.1.6-.6l.5-.9.3-.6.4-1a1.6 1.6 0 0 1 .3-1 .6.6 0 0 0 .1-.6c0-.2 0-.3.2-.6l.3-.4.5-1a4.7 4.7 0 0 1 .2-.9 3 3 0 0 0 .3-1.3 3.8 3.8 0 0 1 .3-.9v-.5c-.1-.2-.1-.2 0-.6s.1-.2.2-.2a.4.4 0 0 1 .1.3l.2-.5a2.3 2.3 0 0 0 .2-.9v-.3c0-.1 0-.3-.1-.3v.4c-.2 0-.3.2-.5.3a6.4 6.4 0 0 0 .1-.8l.4-.2a.7.7 0 0 0 .2-.6 1.4 1.4 0 0 1 0-.3 4.8 4.8 0 0 0 .2-1.4v-.2l.3-1h.1a.3.3 0 0 0 .1-.3h-.1a.9.9 0 0 1 .2-.8 1.5 1.5 0 0 0-.9-1zm-1.2 7.8zm-.2-9.9zm0 0zM9.1 30.8a.3.3 0 0 0 0-.2l-.2-.2-.2.2-.3.6c0 .3-.3.6-.3.9v.2h.1zm96.3 24.8h.1a1.7 1.7 0 0 0 .2-1.2.5.5 0 0 1 .2-.5h.1v-.2l-.2-.2h-.1c-.1.1-.2.3-.3.3s-.1.1-.1.3v.3a2.2 2.2 0 0 0 .1 1.2zM13.2 90.1c-.1 0 0 .2 0 .3l.8.8h.1c-.2-.3-.3-.6-.2-.7a.9.9 0 0 1-.5-.2zm.8.3zm92.3-35.7h.1a2 2 0 0 0 0-.6c-.3.1-.3.1-.3.6s.1.1.2 0z"></path><path d="M106.7 62a.6.6 0 0 0 .1-.5c0-.1-.1-.2-.1-.1h-.2v.2c0 .4.1.5.2.4zm.1-8.2h-.1v.6a1 1 0 0 0 .1-.6zM17.1 92.6h-.2v.2l.2.2h.2v-.2zm86.6-33.3c0-.1 0-.1-.1-.1zM9.9 86.5l.5.5-.4-.6z"></path><circle cx="10.5" cy="87.1" transform="rotate(-24.8 10.4 87.159)"></circle><path d="M9.7 30.1h-.1v.2-.2h.1zm83.2-6.6l-.2-.3h-.1zm-14.7 77.1zM5.9 32.2zm-.1.2a.3.3 0 0 0 .1-.2v.2zm1.9-4.9zM61.5 2.4zm42.8 58.2v.1-.1zM16.4 92.5h-.1c.1.1.2 0 .1-.1zm.2.7h.1l-.1-.1v.1zm73.9-71.3zm15.2 34.4zM14.6 91.7zm92.1-37zm-.8 11.4zM34.6 0z"></path></g></g><g id="SvgjsG2526" featurekey="text1" fill="#ffffff" transform="matrix(6.0412742667628745,0,0,6.0412742667628745,130.308865264459,39.46241729786733)"><path d="M7.44 12.18 c1.04 0.9 1.32 2.04 0.98 3.36 c-0.14 0.58 -0.44 1.1 -0.82 1.58 c-0.56 0.74 -1.22 1.34 -2 1.86 c-0.38 0.24 -0.78 0.5 -1.16 0.74 c-0.24 0.16 -0.48 0.32 -0.72 0.56 c0.12 0.1 0.22 0.2 0.32 0.28 c0.64 0.52 1.3 1.04 1.94 1.54 c0.5 0.4 0.94 0.86 1.36 1.34 c0.1 0.1 0.16 0.22 0.22 0.3 c-0.06 0.24 -0.22 0.32 -0.38 0.36 c-0.64 0.16 -1.24 0.12 -1.72 -0.38 c-0.74 -0.76 -1.6 -1.36 -2.44 -2 c-0.04 -0.02 -0.08 -0.02 -0.12 -0.04 c-0.12 0.08 -0.08 0.18 -0.08 0.28 c0 0.44 0.04 0.86 0.04 1.28 c0 0.4 -0.08 0.54 -0.44 0.66 c-0.5 0.16 -0.98 0.16 -1.48 0 c-0.28 -0.1 -0.44 -0.3 -0.46 -0.6 c-0.22 -2.16 -0.4 -4.32 -0.36 -6.48 c0.02 -1.78 0.08 -3.54 0.24 -5.3 c0.02 -0.24 0.06 -0.48 0.1 -0.72 c0.02 -0.24 0.16 -0.38 0.36 -0.46 c0.62 -0.22 1.22 -0.24 1.76 0.18 c0.16 0.12 0.3 0.12 0.48 0.12 c0.66 0.02 1.34 0.08 1.98 0.26 c0.9 0.24 1.7 0.68 2.4 1.28 z M1.08 12.02 c0 -0.1 -0.02 -0.2 -0.02 -0.3 c-0.16 0 -0.18 0.1 -0.2 0.2 c-0.06 0.66 -0.16 1.3 -0.2 1.96 c-0.16 1.72 -0.14 3.44 -0.1 5.16 c0.02 1.04 0.08 2.08 0.28 3.12 l0 -0.56 c-0.02 -1.74 -0.06 -3.48 -0.06 -5.2 c0 -1.04 0.04 -2.08 0.18 -3.1 c0.04 -0.42 0.08 -0.86 0.12 -1.28 z M5.02 21.64 c-0.1 -0.06 -0.24 0.1 -0.14 0.18 c0.3 0.16 0.56 0.38 0.82 0.6 c0.28 0.28 0.54 0.58 0.82 0.86 c0 0.02 0.02 0.04 0.04 0.04 c0.1 0.12 0.2 0.22 0.28 0.34 c0.08 0.08 0.24 -0.04 0.16 -0.14 c-0.58 -0.7 -1.18 -1.4 -1.98 -1.88 z M6.5 15.38 c0.3 -1.08 -0.02 -2.26 -1 -2.92 c-0.28 -0.2 -0.6 -0.4 -0.92 -0.56 c-0.52 -0.26 -1.1 -0.38 -1.76 -0.36 c0 0.18 -0.02 0.32 -0.02 0.46 l0 1.34 c-0.02 1.8 -0.06 3.6 -0.08 5.42 c0 0.14 -0.02 0.3 0.06 0.46 c0.08 -0.04 0.14 -0.06 0.2 -0.08 c0.42 -0.28 0.82 -0.56 1.24 -0.84 c0.58 -0.42 1.1 -0.94 1.54 -1.52 c0.34 -0.42 0.58 -0.88 0.74 -1.4 z M8.22 14.8 c0.06 -0.46 0 -0.9 -0.16 -1.28 l0 -0.04 l-0.02 -0.02 c-0.08 -0.18 -0.16 -0.34 -0.28 -0.5 c-0.06 -0.12 -0.14 -0.24 -0.22 -0.36 c-0.12 -0.18 -0.28 -0.34 -0.5 -0.42 c-0.04 -0.04 -0.08 -0.06 -0.12 -0.1 c-0.04 -0.06 -0.1 -0.1 -0.16 -0.12 c-0.08 -0.04 -0.16 -0.1 -0.26 -0.16 c-0.08 -0.04 -0.26 0.06 -0.16 0.14 c1.04 0.62 1.84 1.6 1.68 2.88 c-0.02 0.1 0.2 0.08 0.2 -0.02 z M15.66 18.12 c0.04 0.64 0.06 1.26 0.04 1.9 c-0.06 1.2 -0.12 2.4 -0.2 3.6 l0 0.26 c-0.02 0.14 -0.1 0.22 -0.2 0.26 c-0.24 0.12 -0.48 0.14 -0.74 0.12 c-0.46 -0.06 -0.56 -0.2 -0.56 -0.64 c-0.02 -0.18 0 -0.38 0 -0.58 c-0.14 0.06 -0.22 0.06 -0.26 0.1 c-0.08 0.06 -0.16 0.1 -0.22 0.16 c-0.82 0.68 -1.72 0.76 -2.7 0.48 c-0.78 -0.22 -1.18 -0.8 -1.32 -1.56 c-0.1 -0.76 0.22 -1.38 0.86 -1.82 c0.22 -0.16 0.52 -0.28 0.82 -0.36 c0.84 -0.26 1.74 -0.28 2.6 -0.18 c0.08 0 0.2 0 0.28 0.04 c0.08 -0.4 0.1 -1.7 0.02 -2.26 c-0.06 -0.28 -0.08 -0.58 -0.26 -0.86 c-0.08 0.02 -0.18 0.02 -0.26 0.06 c-0.38 0.28 -0.74 0.54 -1.12 0.82 c-0.4 0.3 -0.82 0.3 -1.24 0.14 c-0.16 -0.08 -0.22 -0.22 -0.1 -0.34 c0.02 -0.06 0.04 -0.1 0.1 -0.14 c0.52 -0.58 1.16 -1 1.9 -1.3 c0.42 -0.14 0.88 -0.18 1.3 -0.12 c0.52 0.08 0.88 0.34 1.06 0.84 c0.12 0.46 0.2 0.9 0.2 1.38 z M13.16 16.38 c0.2 -0.08 0.08 -0.24 -0.06 -0.2 c-0.68 0.3 -1.3 0.72 -1.76 1.3 c-0.06 0.06 0 0.08 0.02 0.04 c0.44 -0.56 1.1 -0.9 1.8 -1.14 z M9.98 21.52 c0.22 -1.2 2.06 -1.5 3.04 -1.52 c0.14 0 0.14 -0.06 0 -0.06 c-1.08 0 -3.04 0.3 -3.28 1.58 c0 0.04 0.22 0.06 0.24 0 z M14.02 22 c0 -0.28 0.04 -0.54 0.04 -0.86 c-0.62 -0.2 -1.14 -0.28 -1.62 0.2 c-0.36 0.34 -0.6 0.78 -0.4 1.36 c0.34 -0.12 0.64 -0.28 0.98 -0.38 c0.32 -0.12 0.66 -0.2 1 -0.32 z M15.3 23.94 c0.1 -0.82 0.1 -1.72 0.04 -2.54 c0 -0.02 -0.04 -0.02 -0.04 0 c0.04 0.82 -0.06 1.58 -0.18 2.38 c-0.06 0.2 0.18 0.16 0.18 0.16 z M21.82 16.86 c1.26 0.64 1.7 1.9 1.28 3.14 c-0.46 1.42 -1.92 2.48 -3.44 2.52 l-1.12 0 c-0.02 0.3 -0.06 0.54 -0.06 0.8 c-0.06 1.16 -0.1 2.36 -0.12 3.52 c-0.02 0.36 -0.04 0.46 -0.46 0.56 c-0.16 0.04 -0.3 0.04 -0.46 0.02 c-0.44 -0.06 -0.56 -0.2 -0.6 -0.62 c-0.02 -0.46 -0.02 -0.94 0 -1.4 c0.04 -1.4 0.12 -2.8 0.18 -4.2 c0.04 -0.84 0.14 -1.7 0.2 -2.54 c0.02 -0.42 0.02 -0.86 0.04 -1.3 l0 -0.16 c0.02 -0.52 0.22 -0.72 0.72 -0.74 l2.18 0 c0.58 0 1.14 0.14 1.66 0.4 z M17.32 25.24 c0.14 -2.62 0.1 -5.3 0.28 -7.94 c0.02 -0.44 -0.08 -0.08 -0.08 -0.06 c0 0.24 -0.32 5.18 -0.36 7.84 c-0.04 0.54 0.18 0.06 0.16 0.16 z M20.98 20.259999999999998 c0.3 -0.48 0.4 -1.02 0.32 -1.6 c-0.12 -0.68 -0.5 -1.14 -1.18 -1.34 c-0.4 -0.12 -0.8 -0.12 -1.18 0.02 c-0.02 0.06 -0.08 0.1 -0.08 0.12 c-0.08 1.32 -0.14 2.62 -0.24 3.98 c0.5 0.26 0.92 0.22 1.3 -0.06 c0.42 -0.3 0.8 -0.66 1.06 -1.12 z M22.96 19.7 c0.14 -0.92 0.06 -1.78 -0.76 -2.34 c-0.02 -0.02 -0.24 -0.1 -0.16 -0.04 c0.78 0.54 0.84 1.5 0.7 2.34 c-0.06 0.44 0.22 0.04 0.22 0.04 z M26.320000000000004 17.18 c0.18 0.06 0.3 0.18 0.3 0.4 c0 0.12 0 0.24 -0.02 0.36 c-0.16 1.76 -0.18 3.5 -0.1 5.24 c0.02 0.34 -0.1 0.5 -0.42 0.58 c-0.16 0.02 -0.32 0.04 -0.48 0.02 c-0.46 -0.04 -0.64 -0.2 -0.68 -0.66 c-0.04 -0.38 -0.06 -0.76 -0.08 -1.12 l0 -1.56 l0 0 l0 -2.08 c0.02 -0.28 0.06 -0.54 0.1 -0.8 c0.02 -0.2 0.16 -0.32 0.34 -0.38 c0.34 -0.12 0.7 -0.12 1.04 0 z M25.060000000000002 18.3 c-0.04 1.22 0 2.44 0.06 3.66 c0.02 -0.5 0.02 -1 0.02 -1.5 c0.02 -0.48 0.04 -0.96 0.04 -1.44 s0.08 -0.98 0.08 -1.52 c-0.12 -0.04 -0.12 0.12 -0.12 0.16 c-0.04 0.2 -0.06 0.42 -0.08 0.64 z M26.000000000000004 23.62 c0.02 -0.04 -0.04 -0.02 -0.08 -0.02 c-0.18 0 -0.46 0.02 -0.56 -0.24 c-0.12 -0.32 -0.26 -0.14 -0.22 0 c0.12 0.32 0.5 0.28 0.74 0.3 c0.02 0 0.12 0 0.12 -0.04 z M26.840000000000003 14.7 c0.04 0.32 0 0.64 -0.12 0.94 c-0.06 0.2 -0.16 0.4 -0.32 0.54 c-0.28 0.3 -0.74 0.3 -1.02 -0.02 c-0.1 -0.12 -0.18 -0.26 -0.22 -0.42 c-0.12 -0.5 0 -0.94 0.38 -1.34 c0.22 -0.22 0.48 -0.28 0.76 -0.32 c0.16 -0.04 0.28 0.04 0.36 0.14 c0.12 0.14 0.18 0.32 0.18 0.48 z M25.6 14.98 c-0.14 0.28 -0.14 0.28 -0.04 0.52 c-0.06 -0.18 0.14 -0.32 0.04 -0.52 z M25.860000000000003 15.96 c0.02 -0.02 0.04 -0.04 0.06 -0.04 c-0.1 -0.06 -0.18 -0.12 -0.28 -0.2 c-0.02 0.02 -0.02 0.04 -0.02 0.06 z M33.22 17.7 c0 0.84 -0.04 1.66 -0.06 2.48 c-0.02 0.86 -0.04 1.7 -0.06 2.56 c0 0.32 0.02 0.6 0.04 0.94 c-0.4 0.3 -0.82 0.28 -1.24 0.08 c-0.14 -0.06 -0.22 -0.2 -0.24 -0.36 c-0.04 -0.26 -0.08 -0.52 -0.1 -0.76 c-0.06 -1.24 -0.06 -2.46 0.04 -3.7 c0.02 -0.4 0.02 -0.8 0.06 -1.18 c0 -0.12 -0.04 -0.22 -0.06 -0.32 c-0.12 -0.06 -0.16 0.02 -0.22 0.1 c-0.2 0.38 -0.42 0.78 -0.62 1.18 c-0.56 1.24 -0.94 2.5 -1.32 3.8 c-0.02 0.06 -0.02 0.08 -0.02 0.12 c-0.14 0.54 -0.4 0.72 -0.98 0.68 c-0.08 0 -0.16 -0.02 -0.26 -0.04 c-0.3 -0.1 -0.38 -0.18 -0.38 -0.52 c-0.04 -1.84 -0.14 -3.66 -0.06 -5.5 c0 -0.06 0.02 -0.1 0.02 -0.16 c0 -0.42 0.1 -0.62 0.68 -0.68 c0.1 0 0.2 0.02 0.28 0.02 c0.4 0.08 0.52 0.22 0.48 0.6 c0 0.36 -0.02 0.72 -0.04 1.06 c0 0.1 0.02 0.2 0.02 0.3 c0.18 -0.04 0.2 -0.16 0.24 -0.26 c0.24 -0.46 0.48 -0.92 0.86 -1.28 c0.56 -0.62 1.26 -0.8 2.06 -0.6 c0.4 0.1 0.66 0.34 0.78 0.74 c0.04 0.24 0.1 0.48 0.1 0.7 z M28.14 20.240000000000002 c-0.08 -1.14 -0.14 -2.04 -0.1 -3.2 c0.02 -0.46 -0.08 -0.36 -0.08 -0.24 c-0.02 0.3 -0.04 0.58 -0.06 0.86 l0 0.16 c-0.02 0.8 -0.04 1.58 0.02 2.38 c0 0.26 0.24 0.46 0.22 0.04 z M31.900000000000002 16.64 c0.14 0.04 0.1 -0.06 0 -0.08 c-0.76 -0.2 -1.34 0.22 -1.78 0.82 c-0.12 0.2 0.04 0.42 0.22 0.08 c0.3 -0.56 0.9 -0.98 1.56 -0.82 z M32.96 23.48 c0 0.06 0.08 0.22 0.06 0.08 c-0.08 -0.48 -0.08 -1.02 -0.06 -1.52 c0.02 -0.3 -0.16 -0.22 -0.16 -0.12 c0 0.5 0.08 1.04 0.16 1.56 z"></path></g><g id="SvgjsG2527" featurekey="text2" fill="#ffffff" transform="matrix(12.206882879111491,0,0,12.206882879111491,130.62307923601978,91.47625348383168)"><path d="M7.42 12.46 c0.1 1.42 0.28 2.84 0.26 4.26 c-0.02 1.68 -0.22 3.34 -0.7 4.96 c-0.16 0.48 -0.34 0.96 -0.56 1.42 c-0.52 1.1 -1.42 1.62 -2.6 1.74 c-0.56 0.04 -1.12 -0.02 -1.68 -0.18 c-0.9 -0.24 -1.48 -0.82 -1.76 -1.7 c-0.12 -0.42 -0.22 -0.84 -0.32 -1.24 c-0.08 -0.32 0 -0.5 0.3 -0.62 c0.62 -0.26 1.26 -0.24 1.88 0 c0.24 0.08 0.36 0.28 0.48 0.5 c0.16 0.34 0.34 0.7 0.52 1.04 c0.04 0.06 0.1 0.12 0.16 0.22 c0.08 -0.12 0.16 -0.2 0.2 -0.3 c0.2 -0.5 0.4 -0.98 0.56 -1.48 c0.36 -1.24 0.52 -2.52 0.62 -3.8 c0.14 -1.58 0.04 -3.16 0.02 -4.74 c0 -0.14 -0.04 -0.28 -0.06 -0.44 c-0.12 -0.02 -0.26 -0.06 -0.38 -0.06 c-0.4 0 -0.82 0.02 -1.22 0.04 c-0.28 0 -0.56 -0.04 -0.8 -0.18 c-0.26 -0.14 -0.26 -0.4 0 -0.54 c0.16 -0.1 0.36 -0.16 0.54 -0.2 c0.26 -0.06 0.5 -0.1 0.76 -0.12 c0.56 -0.06 1.12 -0.12 1.68 -0.16 c0.28 -0.02 0.56 -0.02 0.82 0.02 c0.2 0 0.38 0.06 0.58 0.12 c0.28 0.1 0.48 0.32 0.54 0.64 c0.06 0.26 0.12 0.52 0.16 0.8 z M1.66 21.259999999999998 l0.12 0 l0.02 0 l0 0 c0.02 0 0.02 0 0 0 l0 0 l-0.02 0 l-0.12 0 c-0.36 0.02 -1.26 0 -1.28 0.52 c0 0.1 0.2 0.28 0.34 -0.06 c0.12 -0.3 0.72 -0.46 0.94 -0.46 z M6.88 12.94 c0.14 -0.02 0.06 -0.54 -0.16 -0.58 c-0.1 0.08 -0.06 0.68 0.16 0.58 z M6.06 22.02 c0.12 0.02 0.14 -0.14 0.08 -0.22 c-0.12 -0.02 -0.14 0.18 -0.08 0.22 z M6.98 19.14 c0.26 -1.9 0.24 -3.78 0.06 -5.68 c0 -0.1 0 -0.14 -0.02 -0.22 c-0.02 -0.04 -0.1 -0.1 -0.14 -0.1 c-0.02 0 -0.12 0.06 -0.12 0.1 c-0.02 0.14 0 0.28 0.02 0.42 c0.14 1.36 0.14 2.74 0.06 4.1 c-0.08 1.22 -0.22 2.6 -0.6 3.76 c-0.04 0.12 -0.06 0.1 -0.08 0.24 c0.04 -0.06 0.18 -0.3 0.2 -0.34 c0.34 -0.8 0.48 -1.44 0.62 -2.28 z M16.38 15.14 c0.1 0.48 0 0.64 -0.48 0.78 c-0.4 0.1 -0.78 0.08 -1.16 -0.02 c-0.34 -0.08 -0.58 -0.28 -0.68 -0.62 c-0.08 -0.24 -0.14 -0.48 -0.2 -0.72 c-0.16 -0.68 -0.32 -1.36 -0.5 -2.02 c-0.06 -0.26 -0.16 -0.52 -0.26 -0.78 c-0.04 -0.1 -0.12 -0.2 -0.2 -0.36 c-0.36 0.28 -0.56 0.6 -0.68 0.96 c-0.26 0.82 -0.4 1.66 -0.28 2.52 c0.08 0.48 0.2 0.96 0.32 1.42 c0.26 0.92 0.74 1.74 1.42 2.42 c0.18 0.18 0.38 0.34 0.54 0.54 c0.26 0.32 0.56 0.64 0.78 1 c0.56 0.88 0.42 1.82 -0.32 2.54 c-0.46 0.44 -1 0.76 -1.6 0.96 c-0.94 0.3 -1.86 0.28 -2.78 -0.04 c-0.3 -0.12 -0.6 -0.28 -0.84 -0.48 c-0.58 -0.44 -0.74 -1.16 -0.42 -1.82 c0.4 -0.86 1.52 -1.32 2.42 -0.98 c0.06 0.02 0.12 0.06 0.18 0.1 c0.16 0.1 0.2 0.26 0.06 0.4 c-0.08 0.08 -0.2 0.16 -0.28 0.26 c-0.26 0.28 -0.42 0.62 -0.38 1.02 c0.02 0.28 0.14 0.5 0.38 0.66 c0.2 0.14 0.4 0.16 0.6 0.02 c0.18 -0.12 0.36 -0.24 0.52 -0.38 c0.42 -0.44 0.5 -0.98 0.22 -1.54 c-0.08 -0.16 -0.16 -0.32 -0.28 -0.44 c-0.22 -0.28 -0.44 -0.52 -0.68 -0.76 c-0.16 -0.2 -0.36 -0.36 -0.54 -0.54 c-0.78 -0.76 -1.3 -1.68 -1.58 -2.74 c-0.34 -1.28 -0.4 -2.54 -0.06 -3.82 c0.42 -1.66 1.74 -2.44 3.06 -2.54 c0.36 -0.04 0.72 -0.02 1.08 0.04 c0.84 0.12 1.42 0.62 1.78 1.38 c0.22 0.44 0.34 0.9 0.42 1.38 c0.14 0.72 0.28 1.46 0.42 2.2 z M10.9 11.44 c0.02 -0.04 0 -0.12 0 -0.24 c-0.1 0.06 -0.18 0.08 -0.22 0.14 c-0.38 0.52 -0.68 1.06 -0.84 1.7 c-0.16 0.66 -0.08 1.34 -0.04 2 c0.04 -0.28 0.04 -0.58 0.06 -0.86 c0.02 -0.78 0.22 -1.5 0.66 -2.16 c0.12 -0.18 0.26 -0.38 0.38 -0.58 z M10.94 20.82 c0.1 0 0.02 -0.2 -0.08 -0.2 c-0.14 0 -0.28 0.02 -0.42 0.06 c-0.08 -0.02 -0.12 0 -0.16 0.04 c-0.32 0.1 -0.62 0.3 -0.88 0.56 c-0.06 0.06 0.08 0.24 0.14 0.18 c0.38 -0.4 0.86 -0.62 1.4 -0.64 z M14 19.52 c-0.08 -0.1 -0.22 0 -0.12 0.1 c0.2 0.26 0.42 0.52 0.6 0.78 c0.02 0.02 0.02 0.04 0.04 0.08 l0 0 l0.02 0 c0.18 0.32 0.24 0.68 0.28 1.04 c0.02 0.12 0.2 0.2 0.2 0.06 c-0.04 -0.36 -0.1 -0.72 -0.26 -1.04 c-0.2 -0.38 -0.5 -0.7 -0.76 -1.02 z M15.2 11.7 c0 0.04 -0.02 0.06 -0.02 0.1 l0.02 0 l0 -0.1 z M15.94 14.44 c0 -0.06 0.04 -0.14 0.02 -0.2 c-0.14 -0.78 -0.3 -1.54 -0.58 -2.26 c-0.02 0.1 -0.02 0.2 0 0.3 c0.12 0.64 0.24 1.28 0.38 1.94 c0.02 0.1 0.02 0.2 0.18 0.22 z"></path></g></svg>