<svg  xmlns="http://www.w3.org/2000/svg" width="413" height="503"><defs id="SvgjsDefs1027"></defs><g id="SvgjsG1035" featurekey="root" fill="#ffffff"></g><g id="SvgjsG1036" featurekey="container1" fill="#dc1836" transform="matrix(8.321724662988965,0,0,8.321724662988965,0.00006123163185004079,20.0347324267832)">   <title xmlns="http://www.w3.org/2000/svg">Untitled-1</title>   <path xmlns="http://www.w3.org/2000/svg" d="M23.11,55.78L1.69,43.41A3.39,3.39,0,0,1,0,40.48V15.75a3.39,3.39,0,0,1,1.69-2.94L23.11,0.45a3.39,3.39,0,0,1,3.39,0L47.91,12.82a3.39,3.39,0,0,1,1.69,2.94V40.48a3.39,3.39,0,0,1-1.69,2.94L26.5,55.78A3.39,3.39,0,0,1,23.11,55.78Z"></path> </g><g id="SvgjsG1037" featurekey="text1" fill="#ffffff" transform="matrix(5.039789583248021,0,0,5.039789583248021,104.40848275695008,54.19513419912421)"><path d="M3.2 18.7579 l1.3684 0 c1.1789 0 2.1333 -0.39299 2.8632 -1.1789 s1.0947 -1.7123 1.0947 -2.7789 c0 -0.78596 -0.18947 -1.4807 -0.56842 -2.0842 s-0.87017 -1.0667 -1.4737 -1.3895 s-1.2421 -0.48421 -1.9158 -0.48421 l-1.3684 0 l0 7.9158 z M4.5684 9.684 c0.91227 0 1.7649 0.22804 2.5579 0.68419 s1.4176 1.0807 1.8737 1.8737 s0.68421 1.6456 0.68421 2.5579 c0 0.77194 -0.17543 1.5158 -0.52632 2.2316 s-0.83509 1.3123 -1.4526 1.7895 s-1.2912 0.8 -2.0211 0.96842 l3.5789 4.2105 l-1.5368 0 l-3.4526 -4.0842 l-1.0737 0 l0 4.0842 l-1.1579 0 l0 -13.158 l-1.7263 0 l0.69474 -1.1579 l3.5579 0 z M18.147399999999998 22.8421 c-0.91227 0.94036 -2.007 1.4105 -3.2842 1.4105 c-1.2351 0 -2.3017 -0.44912 -3.2 -1.3474 s-1.3474 -1.9649 -1.3474 -3.2 c0 -1.2632 0.44912 -2.3368 1.3474 -3.2211 s1.9649 -1.3263 3.2 -1.3263 c1.2772 0 2.372 0.47017 3.2842 1.4105 l1.2632 -1.1789 l0 8.6105 z M14.863199999999999 16.3158 c-0.95438 0 -1.7579 0.32632 -2.4105 0.97895 s-0.97895 1.4561 -0.97895 2.4105 s0.32632 1.7579 0.97895 2.4105 s1.4561 0.97895 2.4105 0.97895 c0.94036 0 1.7404 -0.32983 2.4 -0.98947 s0.98947 -1.4596 0.98947 -2.4 s-0.32983 -1.7404 -0.98947 -2.4 s-1.4596 -0.98947 -2.4 -0.98947 z M25.221005263157892 24.25263 c-1.3474 0 -2.4773 -0.50528 -3.3895 -1.5158 l0 6.9895 l-1.1579 0 l0 -14.337 l1.2632 1.1789 c0.91227 -0.94036 2.007 -1.4105 3.2842 -1.4105 c1.2632 0 2.3368 0.44211 3.2211 1.3263 s1.3263 1.9579 1.3263 3.2211 c0 1.2351 -0.44211 2.3017 -1.3263 3.2 s-1.9579 1.3474 -3.2211 1.3474 z M25.221005263157892 23.09472 c0.95438 0 1.7579 -0.32632 2.4105 -0.97895 s0.97895 -1.4561 0.97895 -2.4105 s-0.32632 -1.7579 -0.97895 -2.4105 s-1.4561 -0.97895 -2.4105 -0.97895 c-0.94036 0 -1.7404 0.32983 -2.4 0.98947 s-0.98947 1.4596 -0.98947 2.4 s0.32983 1.7404 0.98947 2.4 s1.4596 0.98947 2.4 0.98947 z M30.715790526315786 15.3895 l1.1579 0 l0 8.6105 l-1.1579 0 l0 -8.6105 z M30.715790526315786 12.021 l1.1579 0 l0 1.2632 l-1.1579 0 l0 -1.2632 z M33.13684315789473 24 l0 -8.6105 l0.98947 0.8 c0.65964 -0.68773 1.4737 -1.0316 2.4421 -1.0316 s1.7825 0.32983 2.4421 0.98947 s0.98947 1.4737 0.98947 2.4421 l0 5.4105 l-1.1579 0 l0 -5.4105 c0 -0.65964 -0.22105 -1.2035 -0.66316 -1.6316 s-0.97895 -0.64211 -1.6105 -0.64211 s-1.1684 0.22105 -1.6105 0.66316 s-0.66316 0.97895 -0.66316 1.6105 l0 5.4105 l-1.1579 0 z"></path></g><g id="SvgjsG1038" featurekey="text2" fill="#ffffff" transform="matrix(12.96044643493354,0,0,12.96044643493354,101.90929482174064,91.21605562415724)"><path d="M1.1368 22.1053 c0.49122 0.49122 1.0807 0.73684 1.7684 0.73684 c0.74385 0 1.3333 -0.25263 1.7684 -0.75789 s0.65263 -1.0596 0.65263 -1.6632 l0 -10.737 l1.1579 0 l0 10.737 c0 0.98246 -0.34385 1.8246 -1.0316 2.5263 s-1.5368 1.0526 -2.5474 1.0526 c-1.0246 0 -1.8877 -0.36491 -2.5895 -1.0947 z M8.54738947368421 20.6737 c0.16842 0.71579 0.53331 1.2913 1.0947 1.7264 s1.193 0.65263 1.8947 0.65263 c0.87017 0 1.5965 -0.29825 2.1789 -0.89474 s0.87368 -1.3158 0.87368 -2.1579 c0 -0.74385 -0.21053 -1.3789 -0.63158 -1.9053 s-0.96141 -0.87368 -1.6211 -1.0421 l-1.6421 -0.42105 c-0.8 -0.21053 -1.4491 -0.64211 -1.9474 -1.2947 s-0.74737 -1.393 -0.74737 -2.2211 c0 -1.0105 0.35438 -1.8702 1.0632 -2.5789 s1.5684 -1.0632 2.5789 -1.0632 c0.64562 0 1.2526 0.16491 1.8211 0.49474 s1.014 0.76842 1.3368 1.3158 l-1.0105 0.56842 c-0.46316 -0.81404 -1.1789 -1.2211 -2.1474 -1.2211 c-0.68773 0 -1.2737 0.24912 -1.7579 0.74737 s-0.72632 1.0772 -0.72632 1.7368 c0 0.57543 0.17543 1.0877 0.52632 1.5368 s0.78598 0.73684 1.3053 0.86316 l1.6421 0.42105 c0.91227 0.23859 1.6596 0.73684 2.2421 1.4947 s0.87368 1.614 0.87368 2.5684 c0 1.1789 -0.41404 2.1754 -1.2421 2.9895 s-1.8175 1.2211 -2.9684 1.2211 c-0.96842 0 -1.8316 -0.30175 -2.5895 -0.90526 s-1.2561 -1.3755 -1.4947 -2.3158 z"></path></g></svg>